<?xml version="1.0" encoding="utf-8"?>
<!-- Generator: Adobe Illustrator 28.0.0, SVG Export Plug-In . SVG Version: 6.00 Build 0)  -->
<svg version="1.1" xmlns="http://www.w3.org/2000/svg" xmlns:xlink="http://www.w3.org/1999/xlink" x="0px" y="0px"
	 viewBox="0 0 500 500" style="enable-background:new 0 0 500 500;" xml:space="preserve">
<style type="text/css">
	.st0{display:none;}
	.st1{display:inline;fill:#2E2B58;}
	.st2{fill:#8991C8;}
	.st3{fill:#FFFFFF;}
	.st4{fill:#252733;}
	.st5{fill:#786E94;}
	.st6{fill:#60679E;}
	.st7{fill:#FDB515;}
	.st8{fill:#FCC659;}
	.st9{fill:#CDC3F8;}
	.st10{fill:none;}
	.st11{fill:#ACA3E6;}
	.st12{fill:#F5B940;}
</style>
<g id="Layer_2" class="st0">
	<rect class="st1" width="500" height="500"/>
</g>
<g id="Layer_1">
	<g>
		<circle class="st2" cx="250" cy="250" r="250"/>
	</g>
</g>
<g id="Layer_3">
	<g>
		<path class="st3" d="M377.6,57.2H119c-10,0-18.1,8.1-18.1,18.1V248c0,10,8.1,18.1,18.1,18.1h258.6c10,0,18.1-8.1,18.1-18.1V75.2
			C395.7,65.2,387.6,57.2,377.6,57.2z"/>
		<path class="st4" d="M101,209.8c-0.5,0-0.8-0.4-0.8-0.8V75.2c0-10.4,8.5-18.9,18.9-18.9h56.2c0.5,0,0.8,0.4,0.8,0.8
			c0,0.5-0.4,0.8-0.8,0.8H119c-9.5,0-17.2,7.7-17.2,17.2v133.7C101.8,209.4,101.4,209.8,101,209.8z"/>
		<path class="st4" d="M223.5,58h-34.9c-0.5,0-0.8-0.4-0.8-0.8c0-0.5,0.4-0.8,0.8-0.8h34.9c0.5,0,0.8,0.4,0.8,0.8
			C224.3,57.6,224,58,223.5,58z"/>
		<g>
			<path class="st5" d="M370.6,89.9H125.8c-0.5,0-0.8-0.4-0.8-0.8c0-0.5,0.4-0.8,0.8-0.8h244.8c0.5,0,0.8,0.4,0.8,0.8
				C371.5,89.6,371.1,89.9,370.6,89.9z"/>
			<circle class="st6" cx="137.7" cy="74.9" r="4.2"/>
			<circle class="st6" cx="154.4" cy="74.9" r="4.2"/>
			<circle class="st6" cx="171.1" cy="74.9" r="4.2"/>
			<path class="st5" d="M370.8,75.8h-75.6c-0.5,0-0.8-0.4-0.8-0.8c0-0.5,0.4-0.8,0.8-0.8h75.6c0.5,0,0.8,0.4,0.8,0.8
				C371.7,75.4,371.3,75.8,370.8,75.8z"/>
			<path class="st5" d="M284.6,75.8h-53.1c-0.5,0-0.8-0.4-0.8-0.8c0-0.5,0.4-0.8,0.8-0.8h53.1c0.5,0,0.8,0.4,0.8,0.8
				C285.5,75.4,285.1,75.8,284.6,75.8z"/>
			<path class="st5" d="M206,75.8h-20.7c-0.5,0-0.8-0.4-0.8-0.8c0-0.5,0.4-0.8,0.8-0.8H206c0.5,0,0.8,0.4,0.8,0.8
				C206.8,75.4,206.4,75.8,206,75.8z"/>
		</g>
		<rect x="125.8" y="104.5" class="st6" width="245" height="145.1"/>
	</g>
	<g>
		<path class="st3" d="M426.9,237.1c3.9,0,7,3.1,7,7v48.1c0,3.9-3.1,7-7,7H294.2c-3.9,0-7-3.1-7-7v-48.1c0-3.9,3.1-7,7-7H426.9z"/>
		<path class="st4" d="M426.9,300H294.2c-4.3,0-7.8-3.5-7.8-7.8v-48.1c0-4.3,3.5-7.8,7.8-7.8h26.2c0.5,0,0.8,0.4,0.8,0.8
			c0,0.5-0.4,0.8-0.8,0.8h-26.2c-3.4,0-6.2,2.8-6.2,6.2v48.1c0,3.4,2.8,6.2,6.2,6.2h132.6c3.4,0,6.2-2.8,6.2-6.2v-48.1
			c0-3.4-2.8-6.2-6.2-6.2h-43.4c-0.5,0-0.8-0.4-0.8-0.8c0-0.5,0.4-0.8,0.8-0.8h43.4c4.3,0,7.8,3.5,7.8,7.8v48.1
			C434.7,296.5,431.2,300,426.9,300z"/>
		<path class="st5" d="M414.5,260.8H309.1c-0.5,0-0.8-0.4-0.8-0.8s0.4-0.8,0.8-0.8h105.4c0.5,0,0.8,0.4,0.8,0.8
			S415,260.8,414.5,260.8z"/>
		<path class="st5" d="M414.5,274.9h-22c-0.5,0-0.8-0.4-0.8-0.8c0-0.5,0.4-0.8,0.8-0.8h22c0.5,0,0.8,0.4,0.8,0.8
			C415.3,274.5,415,274.9,414.5,274.9z"/>
		<path class="st5" d="M360.6,274.9h-51.5c-0.5,0-0.8-0.4-0.8-0.8c0-0.5,0.4-0.8,0.8-0.8h51.5c0.5,0,0.8,0.4,0.8,0.8
			C361.4,274.5,361,274.9,360.6,274.9z"/>
	</g>
	<g>
		<path class="st3" d="M181.6,100.7c3.9,0,7,3.1,7,7v48.1c0,3.9-3.1,7-7,7H49c-3.9,0-7-3.1-7-7v-48.1c0-3.9,3.1-7,7-7H181.6z"/>
		<path class="st4" d="M181.6,163.6H49c-4.3,0-7.8-3.5-7.8-7.8v-48.1c0-4.3,3.5-7.8,7.8-7.8h26.2c0.5,0,0.8,0.4,0.8,0.8
			c0,0.5-0.4,0.8-0.8,0.8H49c-3.4,0-6.2,2.8-6.2,6.2v48.1c0,3.4,2.8,6.2,6.2,6.2h132.6c3.4,0,6.2-2.8,6.2-6.2v-48.1
			c0-3.4-2.8-6.2-6.2-6.2h-43.4c-0.5,0-0.8-0.4-0.8-0.8c0-0.5,0.4-0.8,0.8-0.8h43.4c4.3,0,7.8,3.5,7.8,7.8v48.1
			C189.4,160.1,185.9,163.6,181.6,163.6z"/>
		<g>
			<path class="st3" d="M63.8,123.6h105.4H63.8z"/>
			<path class="st4" d="M169.2,124.4H63.8c-0.5,0-0.8-0.4-0.8-0.8s0.4-0.8,0.8-0.8h105.4c0.5,0,0.8,0.4,0.8,0.8
				S169.7,124.4,169.2,124.4z"/>
		</g>
		<g>
			<path class="st3" d="M147.2,137.7h22H147.2z"/>
			<path class="st4" d="M169.2,138.5h-22c-0.5,0-0.8-0.4-0.8-0.8c0-0.5,0.4-0.8,0.8-0.8h22c0.5,0,0.8,0.4,0.8,0.8
				C170.1,138.1,169.7,138.5,169.2,138.5z"/>
		</g>
		<g>
			<path class="st3" d="M63.8,137.7h51.5H63.8z"/>
			<path class="st4" d="M115.3,138.5H63.8c-0.5,0-0.8-0.4-0.8-0.8c0-0.5,0.4-0.8,0.8-0.8h51.5c0.5,0,0.8,0.4,0.8,0.8
				C116.1,138.1,115.8,138.5,115.3,138.5z"/>
		</g>
	</g>
	<g>
		<g>
			<path class="st7" d="M266.7,133.6l-9.9-1.4l-4.4-9c-1-1.9-3.7-1.9-4.7,0l-4.4,9l-9.9,1.4c-2.1,0.3-3,2.9-1.4,4.4l7.2,7l-1.7,9.9
				c-0.4,2.1,1.9,3.7,3.8,2.7l8.9-4.7l8.9,4.7c1.9,1,4.1-0.6,3.8-2.7l-1.7-9.9l7.2-7C269.7,136.5,268.8,133.9,266.7,133.6z"/>
			<path class="st7" d="M312.5,133.6l-9.9-1.4l-4.4-9c-1-1.9-3.7-1.9-4.7,0l-4.4,9l-9.9,1.4c-2.1,0.3-3,2.9-1.4,4.4l7.2,7l-1.7,9.9
				c-0.4,2.1,1.9,3.7,3.8,2.7l8.9-4.7l8.9,4.7c1.9,1,4.1-0.6,3.8-2.7l-1.7-9.9l7.2-7C315.5,136.5,314.6,133.9,312.5,133.6z"/>
			<path class="st7" d="M358.3,133.6l-9.9-1.4l-4.4-9c-1-1.9-3.7-1.9-4.7,0l-4.4,9l-9.9,1.4c-2.1,0.3-3,2.9-1.4,4.4l7.2,7l-1.7,9.9
				c-0.4,2.1,1.9,3.7,3.8,2.7l8.9-4.7l8.9,4.7c1.9,1,4.1-0.6,3.8-2.7l-1.7-9.9l7.2-7C361.3,136.5,360.5,133.9,358.3,133.6z"/>
			<path class="st7" d="M404.1,133.6l-9.9-1.4l-4.4-9c-1-1.9-3.7-1.9-4.7,0l-4.4,9l-9.9,1.4c-2.1,0.3-3,2.9-1.4,4.4l7.2,7l-1.7,9.9
				c-0.4,2.1,1.9,3.7,3.8,2.7l8.9-4.7l8.9,4.7c1.9,1,4.1-0.6,3.8-2.7l-1.7-9.9l7.2-7C407.1,136.5,406.3,133.9,404.1,133.6z"/>
			<path class="st8" d="M450,133.6l-9.9-1.4l-4.4-9c-1-1.9-3.7-1.9-4.7,0l-4.4,9l-9.9,1.4c-2.1,0.3-3,2.9-1.4,4.4l7.2,7l-1.7,9.9
				c-0.4,2.1,1.9,3.7,3.8,2.7l8.9-4.7l8.9,4.7c1.9,1,4.1-0.6,3.8-2.7l-1.7-9.9l7.2-7C452.9,136.5,452.1,133.9,450,133.6z"/>
		</g>
		<g>
			<g>
				<path class="st7" d="M423.1,33.2l-21.6,7l-18-13.9c-3.9-3-9.5-0.2-9.5,4.7l0,22.7l-18.8,12.9c-4,2.8-3.1,9,1.5,10.5l21.6,7.1
					l6.4,21.8c1.4,4.7,7.5,5.8,10.4,1.8l13.4-18.4l22.7,0.6c4.9,0.1,7.8-5.4,4.9-9.4l-13.3-18.4l7.6-21.4
					C432.1,36.2,427.8,31.7,423.1,33.2z"/>
				<path class="st4" d="M394.3,107.4c-0.4,0-0.8,0-1.2-0.1c-2.5-0.4-4.6-2.3-5.3-4.7l-6.3-21.4l-21.2-6.9c-2.5-0.8-4.2-2.9-4.6-5.4
					c-0.4-2.6,0.7-5,2.9-6.5L377,49.7l0-22.3c0-2.6,1.4-4.9,3.8-6c2.3-1.1,5-0.9,7.1,0.7l17.7,13.6l21.2-6.9
					c2.5-0.8,5.1-0.1,6.9,1.7c1.8,1.9,2.4,4.5,1.5,6.9l-7.5,21l13.1,18.1c1.5,2.1,1.7,4.8,0.5,7.1c-1.2,2.3-3.6,3.7-6.1,3.6
					l-22.3-0.6l-13.1,18C398.5,106.4,396.5,107.4,394.3,107.4z M383.8,22.4c-0.8,0-1.5,0.2-2.3,0.5c-1.8,0.9-2.8,2.6-2.8,4.5l0,22.7
					c0,0.3-0.1,0.5-0.4,0.7l-18.8,12.9c-1.6,1.1-2.4,2.9-2.1,4.9c0.3,2,1.6,3.5,3.4,4.1l21.6,7.1c0.3,0.1,0.5,0.3,0.5,0.6l6.4,21.8
					c0.6,1.9,2.1,3.2,4,3.6c1.9,0.3,3.8-0.4,5-2l13.4-18.4c0.2-0.2,0.4-0.4,0.7-0.3l22.7,0.6c0,0,0.1,0,0.1,0c1.9,0,3.6-1,4.5-2.7
					c0.9-1.7,0.8-3.7-0.4-5.3l-13.3-18.4c-0.2-0.2-0.2-0.5-0.1-0.8l7.6-21.4c0.7-1.9,0.2-3.8-1.1-5.2c-1.4-1.4-3.3-1.9-5.2-1.3l0,0
					l-21.6,7c-0.3,0.1-0.5,0-0.8-0.1l-18-13.9C386,22.7,384.9,22.4,383.8,22.4z M427.1,29.6L427.1,29.6L427.1,29.6z"/>
			</g>
			<path class="st9" d="M445.8,126.7c-0.2,0-0.4-0.1-0.5-0.2c-0.3-0.3-0.4-0.8-0.1-1.2C454,115,458,104.1,457,92.9
				c-1.8-20.5-20-35.3-20.2-35.5c-0.4-0.3-0.4-0.8-0.1-1.2c0.3-0.4,0.8-0.4,1.2-0.1c0.2,0.2,18.9,15.4,20.8,36.6
				c1.1,11.7-3.1,23-12.3,33.6C446.3,126.6,446,126.7,445.8,126.7z"/>
			<path class="st9" d="M420.6,129.9c-0.1,0-0.2,0-0.3-0.1c-0.4-0.2-0.6-0.7-0.4-1.1c7.9-18.4-5.2-33.5-5.3-33.6
				c-0.3-0.3-0.3-0.9,0.1-1.2c0.3-0.3,0.9-0.3,1.2,0.1c0.1,0.2,13.9,16,5.6,35.4C421.2,129.8,420.9,129.9,420.6,129.9z"/>
		</g>
	</g>
	<g>
		<path class="st6" d="M313.7,480.4c0,0,16.3-14.9,23.8-43.8c0.4-1.6-6.6-3.3-6.2-5c0.5-2.1,8.9-6.3,9.2-8.5
			c2.8-18.8,1.3-41.6-10.2-67.2c0,0-6.2,6.6-12.8,18.2c-0.8,1.3,2.7,8.1,1.9,9.6c-0.7,1.4-5.6-2.5-6.3-1
			C302.8,405.1,294.9,439.6,313.7,480.4z"/>
		<g>
			<path class="st3" d="M320.9,489.4c0,0,77.8-24.8,101.3-118.8c0.6-2.3-9.4-6-8.9-8.4c0.5-2.4,14.5-9.6,15-12.1
				c2.1-11.9,3.3-24.7,3.3-38.5C431.5,311.6,319.8,357.8,320.9,489.4z"/>
			<path class="st5" d="M335.8,466.7c-0.1,0-0.3,0-0.4-0.1c-0.4-0.2-0.5-0.7-0.3-1.1c8.7-14.9,16.4-28.5,23-40.5
				c0.2-0.4,0.7-0.5,1.1-0.3c0.4,0.2,0.5,0.7,0.3,1.1c-6.6,12-14.4,25.6-23.1,40.5C336.3,466.6,336,466.7,335.8,466.7z"/>
			<path class="st5" d="M371.9,401.6c-0.1,0-0.3,0-0.4-0.1c-0.4-0.2-0.6-0.7-0.4-1.1c0.2-0.4,21.4-41.7,37.7-56.6
				c0.3-0.3,0.9-0.3,1.2,0.1c0.3,0.3,0.3,0.9-0.1,1.2c-16.1,14.7-37.1,55.7-37.3,56.1C372.5,401.4,372.2,401.6,371.9,401.6z"/>
		</g>
	</g>
	<path class="st10" d="M480,230.4c-0.4-64.9-30.2-158.7-110.7-194.6c-38.2-17-98.5-25.8-141.5,2.8C187.6,65.4,205,96.5,160.7,150
		c-51,61.6-92.1,53.3-126.3,107c-22.6,35.5-12.6,78.5-9.8,90.8c21,90.4,131,121.5,143.3,124.8c60.9,16.2,115.1,2.8,151.4-12.1
		c0.3-0.1,0.7,0.3,1,0.2c21.5-8.9,37.3-17.2,43.4-21c17.1-10.7,31.5-23.9,43.9-36.6c0.2-0.2-0.1-0.8,0.1-0.9
		C478.9,329.7,480,235.4,480,230.4z"/>
	<g>
		<path class="st3" d="M96.3,231.9H35.7c-3.6,0-6.6-3-6.6-6.6c0-3.6,3-6.6,6.6-6.6h57c0.5,0,0.8,0.4,0.8,0.8c0,0.5-0.4,0.8-0.8,0.8
			h-57c-2.7,0-4.9,2.2-4.9,4.9c0,2.7,2.2,4.9,4.9,4.9h60.6c0.5,0,0.8,0.4,0.8,0.8C97.1,231.6,96.8,231.9,96.3,231.9z"/>
		<path class="st5" d="M115.3,220.4H92.7c-0.5,0-0.8-0.4-0.8-0.8c0-0.5,0.4-0.8,0.8-0.8h22.6c0.5,0,0.8,0.4,0.8,0.8
			C116.1,220,115.8,220.4,115.3,220.4z"/>
		<path class="st3" d="M138.2,231.9h-21.6c-0.5,0-0.8-0.4-0.8-0.8c0-0.5,0.4-0.8,0.8-0.8h21.6c2.7,0,4.9-2.2,4.9-4.9
			c0-2.7-2.2-4.9-4.9-4.9h-22.9c-0.5,0-0.8-0.4-0.8-0.8c0-0.5,0.4-0.8,0.8-0.8h22.9c3.6,0,6.6,3,6.6,6.6
			C144.8,229,141.8,231.9,138.2,231.9z"/>
		<path class="st5" d="M116.5,231.9H96.3c-0.5,0-0.8-0.4-0.8-0.8c0-0.5,0.4-0.8,0.8-0.8h20.2c0.5,0,0.8,0.4,0.8,0.8
			C117.4,231.6,117,231.9,116.5,231.9z"/>
		<path class="st6" d="M64.7,219.6h-29c-3.2,0-5.8,2.6-5.8,5.8l0,0c0,3.2,2.6,5.8,5.8,5.8h29c3.2,0,5.8-2.6,5.8-5.8l0,0
			C70.4,222.2,67.9,219.6,64.7,219.6z"/>
		<g>
			
				<ellipse transform="matrix(0.7071 -0.7071 0.7071 0.7071 -139.5519 113.7717)" class="st7" cx="67.6" cy="225.3" rx="8.7" ry="8.7"/>
			<path class="st4" d="M67.6,231.7c-3.5,0-6.3-2.8-6.3-6.3c0-3.5,2.8-6.3,6.3-6.3c3.5,0,6.3,2.8,6.3,6.3c0,0.5-0.4,0.8-0.8,0.8
				c-0.5,0-0.8-0.4-0.8-0.8c0-2.6-2.1-4.7-4.7-4.7c-2.6,0-4.7,2.1-4.7,4.7c0,2.6,2.1,4.7,4.7,4.7c0.5,0,0.8,0.4,0.8,0.8
				C68.4,231.3,68,231.7,67.6,231.7z"/>
		</g>
	</g>
	<g>
		<path class="st4" d="M50.2,193.8c-0.5,0-0.8-0.4-0.8-0.8v-4.3c0-0.5,0.4-0.8,0.8-0.8s0.8,0.4,0.8,0.8v4.3
			C51,193.4,50.6,193.8,50.2,193.8z"/>
		<path class="st4" d="M50.2,203.8c-0.5,0-0.8-0.4-0.8-0.8v-4.3c0-0.5,0.4-0.8,0.8-0.8s0.8,0.4,0.8,0.8v4.3
			C51,203.4,50.6,203.8,50.2,203.8z"/>
		<path class="st4" d="M47.3,196.7H43c-0.5,0-0.8-0.4-0.8-0.8c0-0.5,0.4-0.8,0.8-0.8h4.3c0.5,0,0.8,0.4,0.8,0.8
			C48.2,196.3,47.8,196.7,47.3,196.7z"/>
		<path class="st4" d="M57.3,196.7H53c-0.5,0-0.8-0.4-0.8-0.8c0-0.5,0.4-0.8,0.8-0.8h4.3c0.5,0,0.8,0.4,0.8,0.8
			C58.2,196.3,57.8,196.7,57.3,196.7z"/>
	</g>
	<g>
		<path class="st4" d="M446.4,232c-0.5,0-0.8-0.4-0.8-0.8v-4.3c0-0.5,0.4-0.8,0.8-0.8s0.8,0.4,0.8,0.8v4.3
			C447.3,231.6,446.9,232,446.4,232z"/>
		<path class="st4" d="M446.4,242c-0.5,0-0.8-0.4-0.8-0.8v-4.3c0-0.5,0.4-0.8,0.8-0.8s0.8,0.4,0.8,0.8v4.3
			C447.3,241.6,446.9,242,446.4,242z"/>
		<path class="st4" d="M443.6,234.8h-4.3c-0.5,0-0.8-0.4-0.8-0.8c0-0.5,0.4-0.8,0.8-0.8h4.3c0.5,0,0.8,0.4,0.8,0.8
			C444.4,234.5,444,234.8,443.6,234.8z"/>
		<path class="st4" d="M453.6,234.8h-4.3c-0.5,0-0.8-0.4-0.8-0.8c0-0.5,0.4-0.8,0.8-0.8h4.3c0.5,0,0.8,0.4,0.8,0.8
			C454.4,234.5,454,234.8,453.6,234.8z"/>
	</g>
	<path class="st4" d="M453.6,205.5c-0.8,0-1.6-0.2-2.4-0.5c-1.7-0.7-3-1.9-3.7-3.6c-1.5-3.4,0.1-7.5,3.4-9l0,0
		c1.6-0.7,3.4-0.8,5.1-0.1c1.7,0.7,3,1.9,3.7,3.6c1.5,3.4-0.1,7.5-3.4,9C455.4,205.3,454.5,205.5,453.6,205.5z M451.6,194
		c-2.6,1.1-3.7,4.2-2.6,6.8c0.5,1.3,1.6,2.2,2.8,2.7c1.2,0.5,2.6,0.4,3.8-0.1c2.6-1.1,3.7-4.2,2.6-6.8c-0.5-1.3-1.6-2.2-2.8-2.7
		C454.1,193.4,452.8,193.4,451.6,194L451.6,194z"/>
	<path class="st11" d="M51.1,436.8c-0.8,0-1.6-0.1-2.4-0.4c-1.7-0.6-3-1.9-3.7-3.6c-1.5-3.4,0.1-7.3,3.4-8.8h0
		c1.6-0.7,3.4-0.8,5-0.1c1.7,0.6,3,1.9,3.7,3.6c1.5,3.4-0.1,7.3-3.4,8.8C52.9,436.6,52,436.8,51.1,436.8z M49.1,425.4
		c-2.5,1.1-3.6,4.1-2.5,6.7c0.5,1.2,1.5,2.2,2.8,2.7c1.2,0.5,2.5,0.4,3.7-0.1c2.5-1.1,3.6-4.1,2.5-6.7c-0.5-1.2-1.5-2.2-2.8-2.7
		C51.6,424.9,50.3,424.9,49.1,425.4L49.1,425.4z"/>
	<g>
		<path class="st11" d="M367.2,481c-0.3,0-0.7-0.2-0.8-0.5c-0.2-0.4,0.1-0.9,0.5-1.1c16.4-5.9,31.9-14.1,45.9-24.2
			c0.4-0.3,0.9-0.2,1.2,0.2c0.3,0.4,0.2,0.9-0.2,1.2C399.6,466.8,384,475,367.5,481C367.4,481,367.3,481,367.2,481z"/>
		<path class="st11" d="M436.9,436.6c-0.2,0-0.4-0.1-0.6-0.2c-0.3-0.3-0.3-0.9,0-1.2c34-34.1,46-71.6,46.1-71.9
			c0.1-0.4,0.6-0.7,1-0.5c0.4,0.1,0.7,0.6,0.5,1c-0.1,0.4-12.3,38.2-46.5,72.6C437.3,436.5,437.1,436.6,436.9,436.6z"/>
		<path class="st11" d="M410.7,485c-0.4,0-0.7-0.2-0.8-0.6c-0.1-0.4,0.1-0.9,0.5-1c3.1-1,6.3-2.1,9.3-3.4c0.4-0.2,0.9,0,1.1,0.4
			c0.2,0.4,0,0.9-0.4,1.1c-3.1,1.3-6.3,2.5-9.5,3.5C410.9,485,410.8,485,410.7,485z"/>
		<path class="st11" d="M428.3,477.6c-0.3,0-0.6-0.2-0.7-0.4c-0.2-0.4-0.1-0.9,0.3-1.1c39.1-21,58.7-63.7,58.9-64.1
			c0.2-0.4,0.7-0.6,1.1-0.4c0.4,0.2,0.6,0.7,0.4,1.1c-0.2,0.4-20,43.6-59.6,64.9C428.6,477.5,428.4,477.6,428.3,477.6z"/>
		<path class="st11" d="M426.4,449.8c-0.6,0-1.1-0.1-1.7-0.3c-1.2-0.5-2.1-1.3-2.6-2.5c-1-2.4,0-5.1,2.4-6.2h0
			c1.1-0.5,2.4-0.5,3.5-0.1c1.2,0.5,2.1,1.3,2.6,2.5c1,2.4,0,5.1-2.4,6.2C427.6,449.6,427,449.8,426.4,449.8z M425.2,442.3
			c-1.5,0.7-2.2,2.5-1.5,4c0.3,0.7,0.9,1.3,1.7,1.6c0.7,0.3,1.5,0.3,2.2-0.1c1.5-0.7,2.2-2.5,1.5-4c-0.3-0.7-0.9-1.3-1.7-1.6
			C426.7,441.9,425.9,442,425.2,442.3L425.2,442.3z"/>
	</g>
	<path class="st4" d="M73.2,350C73.2,350,73.2,350,73.2,350c-0.5,0-0.9-0.5-0.8-0.9l1.8-18.5c0-0.5,0.4-0.8,0.9-0.7
		c0.5,0,0.8,0.5,0.7,0.9L74,349.2C74,349.7,73.6,350,73.2,350z"/>
	<g>
		<g>
			<g>
				<path class="st3" d="M396.7,181.8c-2.8-2.7-6.1-2.8-10-2.3l-1.4-0.9c-3-1.9-6.6-2.4-10-1.6l-26.9,6.6c-1.1,0.3-2.2-0.7-1.9-1.9
					c0.5-2.3,1.3-5.6,1.9-8.3c0.6-2.7-0.5-4.4-1.4-5.2c-0.5-0.5-1.3-0.4-1.8,0.1c-3,3.4-14,16.5-13.6,23c0.4,7.5,5.5,29.2,5.5,29.2
					H360l-4.5-14.7c-0.3-1,0.2-2.1,1.2-2.5l32.7-11.6c0.6-0.2,0.8-0.9,0.4-1.4c-0.7-0.8-1.9-2.1-3.1-2.9l9.3-3.7
					C396.9,183.6,397.2,182.6,396.7,181.8z"/>
				<path class="st4" d="M361.2,221.4h-24.7l-0.2-0.6c-0.2-0.9-5.2-21.9-5.6-29.4c-0.4-6.7,10.5-19.7,13.8-23.5
					c0.4-0.4,0.9-0.7,1.5-0.7c0.6,0,1.1,0.2,1.5,0.5c0.9,0.8,2.4,2.7,1.6,6c-0.6,2.7-1.4,6.1-1.9,8.3c-0.1,0.4,0.1,0.6,0.2,0.7
					c0.1,0.1,0.3,0.3,0.7,0.2l26.9-6.6c3.6-0.9,7.5-0.3,10.7,1.7l1.1,0.7c4.1-0.5,7.5-0.2,10.4,2.5l0.1,0.1l0.1,0.1
					c0.3,0.6,0.4,1.3,0.2,1.9c-0.2,0.6-0.7,1.2-1.3,1.4l-7.9,3.1c0.8,0.7,1.6,1.5,2.1,2.1c0.4,0.4,0.5,1,0.4,1.6
					c-0.1,0.5-0.6,1-1.1,1.2l-32.7,11.6c-0.6,0.2-0.9,0.8-0.7,1.4L361.2,221.4z M337.8,219.7h21.1l-4.2-13.6c-0.4-1.5,0.3-3,1.8-3.5
					l32.7-11.6l0.7-0.6l-0.6,0.5c-0.7-0.8-1.8-2-3-2.8l-1.3-0.9l10.8-4.3c0.2-0.1,0.3-0.3,0.4-0.4c0-0.1,0.1-0.3,0-0.5
					c-2.5-2.3-5.4-2.4-9.2-2l-0.3,0l-1.6-1c-2.8-1.7-6.2-2.3-9.4-1.5l-26.9,6.6c-0.8,0.2-1.7,0-2.2-0.6c-0.6-0.6-0.8-1.4-0.7-2.2
					c0.5-2.3,1.3-5.6,1.9-8.3c0.5-2.3-0.3-3.7-1.1-4.4c-0.1-0.1-0.2-0.1-0.3-0.1c-0.1,0-0.2,0.1-0.3,0.1
					c-6.7,7.6-13.7,17.5-13.4,22.4C332.8,197.9,337,216.1,337.8,219.7z"/>
			</g>
			<path class="st4" d="M358.8,195.2c-0.4,0-0.7-0.3-0.8-0.6c-0.1-0.4,0.2-0.9,0.6-1l23.2-5.8c0.4-0.1,0.9,0.2,1,0.6
				c0.1,0.4-0.2,0.9-0.6,1l-23.2,5.8C358.9,195.2,358.8,195.2,358.8,195.2z"/>
			<path class="st4" d="M356.4,188.4c-0.4,0-0.7-0.3-0.8-0.6c-0.1-0.4,0.2-0.9,0.6-1l23.2-5.8c0.4-0.1,0.9,0.2,1,0.6
				c0.1,0.4-0.2,0.9-0.6,1l-23.2,5.8C356.5,188.4,356.5,188.4,356.4,188.4z"/>
		</g>
		<g>
			<path class="st12" d="M50.4,283.1c6.5,0.4,17.4,0.9,24,1.2c3.1,0.1,5.4,2.9,5,5.9L75,330.7c2.9-5.3,8.3-14.2,17-23.2
				c39.2-40.4,103.9-40.3,132.5-32.6c31.7,8.6,38.7,12.4,38.7,12.4c8.5,5.2,21.1,9.9,37.1,7c29.3-5.3,42.6-30.5,30.4-71
				c-1.1-3.7,1.6-7.5,5.5-7.5h24.9c2.7,0,5.1,1.8,5.8,4.4c5.7,19.3,24.6,97.3-29.9,121.8c-32.2,14.5-66,12.8-66,12.8
				c2.1,18.6,4.3,37.1,6.4,55.7c6.5,30.7,0.6,42.8-5.7,48.1c-14.6,12.5-34.6-4.7-84.2-1.3c-31.6,2.2-39.3,10.7-51.7,4.3
				c-13.1-6.8-24.9-27-22-83.9c0,0-18.9,20.7-54.7,14c-44.3-8.3-22.9-83-16-103.7C44.2,284.9,47.2,282.9,50.4,283.1z"/>
			<path class="st4" d="M145.3,464.8c-3.2,0-6.3-0.7-9.7-2.4c-7.8-4-13.6-12-17.4-23.6c-4.5-14-6.3-33.8-5.2-58.9
				c-2.1,1.9-6.3,5.2-12.6,8.2c-8.5,4-22.6,8-41.3,4.5c-9.5-1.8-16.7-6.7-21.3-14.6c-6.4-10.8-8.1-27.2-5.2-48.6
				c2.4-17.3,7.2-33.5,9.9-41.6c1.1-3.4,4.4-5.7,8.1-5.5c6.6,0.4,17.9,1,24,1.2c1.7,0.1,3.3,0.8,4.4,2.2c1.1,1.3,1.6,3,1.4,4.7
				l-4,36.4c4.3-7.2,9.4-13.9,15.2-19.9c21.9-22.6,50.5-31.3,70.7-34.6c25.7-4.2,49.2-1.9,62.6,1.8c31.4,8.5,38.6,12.3,38.9,12.5
				c7.8,4.8,20.4,9.9,36.6,6.9c12.6-2.3,22.3-8.4,28-17.7c7.7-12.5,8.2-30.6,1.7-52.2c-0.6-2-0.2-4.2,1-5.9c1.3-1.7,3.2-2.7,5.3-2.7
				h24.9c3,0,5.8,2,6.6,5c2.8,9.4,9,34,7.6,59.2c-1.7,31.6-14.5,53-38,63.6c-29,13-59.6,13-65.4,12.9l6.3,54.7
				c5.2,24.6,3.2,41-6,48.9c-8,6.8-17.4,5.2-31.7,2.6c-12.5-2.2-29.6-5.3-53-3.7c-13.3,0.9-22.2,2.9-29.4,4.6
				C153.1,463.9,149.1,464.8,145.3,464.8z M114,376.9c0.1,0,0.2,0,0.3,0.1c0.3,0.1,0.5,0.5,0.5,0.8c-2.4,46.6,4.9,74.5,21.6,83.1
				c6.8,3.5,12.1,2.3,21.6,0.2c6.8-1.5,16.2-3.7,29.6-4.6c23.6-1.6,40.8,1.4,53.4,3.7c13.8,2.5,23,4.1,30.3-2.2
				c8.6-7.4,10.5-23.3,5.4-47.3c0,0,0-0.1,0-0.1l-6.4-55.7c0-0.2,0.1-0.5,0.2-0.7c0.2-0.2,0.4-0.3,0.6-0.3c0.3,0,34,1.5,65.6-12.7
				c22.9-10.3,35.4-31.2,37.1-62.1c1.4-24.9-4.8-49.3-7.6-58.7c-0.7-2.2-2.7-3.8-5-3.8h-24.9c-1.6,0-3,0.7-4,2
				c-0.9,1.3-1.2,2.9-0.8,4.4c6.7,22.1,6,40.6-1.9,53.6c-6,9.7-16,16.1-29.1,18.5c-16.7,3-29.7-2.2-37.7-7.1c0,0-7.4-3.9-38.5-12.3
				c-30.7-8.3-93.6-6.8-131.7,32.4c-6.6,6.8-12.3,14.6-16.9,23c-0.2,0.3-0.6,0.5-1,0.4c-0.4-0.1-0.6-0.5-0.6-0.9l4.5-40.4
				c0.1-1.2-0.2-2.5-1-3.4c-0.8-1-1.9-1.5-3.2-1.6c-6.1-0.3-17.4-0.8-24-1.2c-2.9-0.2-5.5,1.6-6.4,4.3c-4.8,14.6-19.5,64.1-4.8,88.9
				c4.4,7.5,11.2,12.1,20.2,13.8c35,6.5,53.8-13.5,54-13.7C113.5,377,113.7,376.9,114,376.9z"/>
		</g>
		<g>
			<g>
				<path class="st3" d="M74.2,257.6l-2.9-3.2v-21.7c0-2.1-1.7-3.8-3.8-3.8c-2.1,0-3.8,1.7-3.8,3.8V256l-20.4,4.4v11.9
					c0,5.2,3,9.9,7.7,12.1l1,0.5c6.1,2.8,13.2,2.3,18.9-1.4c2.7-1.8,4.5-4.7,4.9-7.9l1.2-9.3C77.3,263.2,76.3,260,74.2,257.6z"/>
				<path class="st4" d="M60.2,287.6c-2.9,0-5.8-0.6-8.5-1.9l-1-0.5c-5-2.3-8.2-7.4-8.2-12.9v-12.6l20.3-4.4v-22.7
					c0-2.6,2.1-4.7,4.7-4.7c2.6,0,4.7,2.1,4.7,4.7V254l2.7,3c2.3,2.6,3.4,6,3,9.5l-1.2,9.3c-0.4,3.5-2.4,6.6-5.3,8.5
					C67.9,286.5,64.1,287.6,60.2,287.6z M44.1,261.1v11.3c0,4.9,2.8,9.3,7.3,11.3l1,0.5c5.9,2.7,12.6,2.2,18-1.3
					c2.5-1.7,4.2-4.3,4.5-7.3l1.2-9.3c0.4-3-0.6-5.9-2.6-8.1l-3.1-3.5v-22c0-1.7-1.3-3-3-3c-1.6,0-3,1.3-3,3v24L44.1,261.1z"/>
			</g>
			<g>
				<path class="st3" d="M60.8,262.1h-3.2c-1.4,0-2.5-1.1-2.5-2.5v-9.4c0-1.4,1.1-2.5,2.5-2.5h2.5c1.7,0,3.2,1.4,3.2,3.2v8.8
					C63.3,261,62.2,262.1,60.8,262.1z"/>
				<path class="st4" d="M60.8,263h-3.2c-1.8,0-3.3-1.5-3.3-3.3v-9.4c0-1.8,1.5-3.3,3.3-3.3h2.5c2.2,0,4,1.8,4,4v8.8
					C64.1,261.5,62.7,263,60.8,263z M57.6,248.6c-0.9,0-1.7,0.7-1.7,1.7v9.4c0,0.9,0.7,1.7,1.7,1.7h3.2c0.9,0,1.7-0.7,1.7-1.7v-8.8
					c0-1.3-1-2.3-2.3-2.3H57.6z"/>
			</g>
			<g>
				<path class="st3" d="M52.6,263.9h-1.2c-1.4,0-2.5-1.1-2.5-2.5v-9.2c0-1.4,1.1-2.5,2.5-2.5h1.2c1.4,0,2.5,1.1,2.5,2.5v9.2
					C55.1,262.8,54,263.9,52.6,263.9z"/>
				<path class="st4" d="M52.6,264.8h-1.2c-1.8,0-3.3-1.5-3.3-3.3v-9.2c0-1.8,1.5-3.3,3.3-3.3h1.2c1.8,0,3.3,1.5,3.3,3.3v9.2
					C56,263.3,54.5,264.8,52.6,264.8z M51.4,250.6c-0.9,0-1.7,0.7-1.7,1.7v9.2c0,0.9,0.7,1.7,1.7,1.7h1.2c0.9,0,1.7-0.7,1.7-1.7
					v-9.2c0-0.9-0.7-1.7-1.7-1.7H51.4z"/>
			</g>
			<g>
				<path class="st3" d="M46.5,266.2h-0.7c-1.4,0-2.5-1.1-2.5-2.5v-9.1c0-1.4,1.1-2.5,2.5-2.5h0.7c1.4,0,2.5,1.1,2.5,2.5v9.1
					C49,265.1,47.8,266.2,46.5,266.2z"/>
				<path class="st4" d="M46.5,267h-0.7c-1.8,0-3.3-1.5-3.3-3.3v-9.1c0-1.8,1.5-3.3,3.3-3.3h0.7c1.8,0,3.3,1.5,3.3,3.3v9.1
					C49.8,265.5,48.3,267,46.5,267z M45.8,252.9c-0.9,0-1.7,0.7-1.7,1.7v9.1c0,0.9,0.7,1.7,1.7,1.7h0.7c0.9,0,1.7-0.7,1.7-1.7v-9.1
					c0-0.9-0.7-1.7-1.7-1.7H45.8z"/>
			</g>
			<path class="st4" d="M73.2,263c-0.2,0-0.3-0.1-0.5-0.2l-8.7-6.3c-0.4-0.3-0.5-0.8-0.2-1.2c0.3-0.4,0.8-0.5,1.2-0.2l8.7,6.3
				c0.4,0.3,0.5,0.8,0.2,1.2C73.7,262.9,73.5,263,73.2,263z"/>
			<path class="st4" d="M57.8,277.7c-0.4,0-0.8-0.3-0.8-0.8c-0.3-6.9,3.9-9.9,6.1-11l-3.2-3.2c-0.3-0.3-0.3-0.9,0-1.2
				c0.3-0.3,0.9-0.3,1.2,0l4,4c0.2,0.2,0.3,0.5,0.2,0.8c-0.1,0.3-0.3,0.5-0.6,0.6c-0.3,0.1-6.5,1.9-6.1,9.8
				C58.6,277.3,58.3,277.7,57.8,277.7C57.8,277.7,57.8,277.7,57.8,277.7z"/>
		</g>
	</g>
	<g>
		<path class="st4" d="M176.5,237.3c-4,2.5-10.3,6.4-17.4,4.3c-7.5-2.2-13.7-10.7-12.3-16.4c1.2-5,7.6-4.8,8.5-10
			c0.9-4.9-4.4-6.7-4.7-12.7c-0.5-8,8.1-17.5,16.1-17.7c4.9-0.1,5.4,3.3,11.1,3.7c7.7,0.5,9.2-5.8,18-6.7c1.5-0.1,10.2-1.3,15.8,4.3
			c3.5,3.6,5.3,9.4,4,14.5c-2.1,8.8-11.3,7.7-23.9,20.5C184,229,184.1,232.5,176.5,237.3z"/>
		<g>
			<g>
				<g>
					<path class="st3" d="M208.2,224.9c-2.2-2.6-3.7-5.8-4.3-9.1c-1.1-6-2.3-11.3-2.3-11.3c-8.9,7.4-19,2.3-19,2.3
						c-8.4,6.5-6.9,15.8-6.9,15.8s-7.8-0.9-7.3,4.2c0.5,5,8.1,6.3,8.2,6.3l-9.2,37.1c-0.6,2.3,0.9,4.7,3.2,5.2
						c14.2,3.1,23,1.9,27.5,0.7c1.3-0.3,1.7-2,0.7-2.9c-4.9-4.9-5.8-18.8-5.8-28c4.6,1,8.8,0.1,10.9-4.1c1.5-3,1.9-6.2,1.7-10.9
						C205.7,229.4,208.8,225.9,208.2,224.9z"/>
					<path class="st4" d="M187.3,278.2c-4.5,0-10.1-0.5-16.9-2c-1.3-0.3-2.5-1.1-3.2-2.3c-0.7-1.2-1-2.6-0.6-3.9l9-36.3
						c-2.2-0.5-7.5-2.3-8-6.8c-0.2-1.4,0.2-2.5,1.1-3.4c1.6-1.6,4.5-1.8,6.1-1.8c-0.2-2.7,0.2-10,7.3-15.5l0.4-0.3l0.5,0.2
						c0.4,0.2,9.7,4.8,18.1-2.2l1-0.9l0.3,1.3c0,0.1,1.2,5.4,2.3,11.3c0.6,3.2,2,6.2,4.1,8.8l0.1,0.1c0.6,1-0.4,2.5-1.5,4.1
						c-0.3,0.5-0.9,1.3-0.9,1.6c0.2,5.1-0.3,8.3-1.8,11.2c-1.9,3.9-5.7,5.6-10.8,4.7c0.1,13.6,2,22.9,5.5,26.4
						c0.7,0.7,0.9,1.6,0.7,2.5c-0.2,0.9-0.9,1.6-1.8,1.8C195.8,277.6,192.1,278.2,187.3,278.2z M174.5,223.3c-1.5,0-3.6,0.2-4.6,1.3
						c-0.5,0.5-0.7,1.2-0.6,2.1c0.5,4.4,7.4,5.5,7.5,5.6l0.9,0.1l-0.2,0.9l-9.2,37.1c-0.2,0.9-0.1,1.8,0.4,2.6
						c0.5,0.8,1.3,1.3,2.2,1.5c14.3,3.1,23.1,1.8,27.1,0.7c0.5-0.1,0.6-0.5,0.6-0.6c0.1-0.3,0-0.7-0.3-0.9c-5-4.9-6-18.2-6-28.6l0-1
						l1,0.2c3.3,0.7,7.8,0.7,9.9-3.6c1.4-2.7,1.8-5.7,1.6-10.5c0-0.6,0.4-1.2,1.2-2.5c0.5-0.7,1.3-2,1.4-2.5
						c-2.2-2.7-3.7-5.9-4.3-9.4c-0.8-4.2-1.6-8.1-2-10c-7.8,5.6-16.3,2.7-18.4,1.8c-7.5,6.1-6.3,14.3-6.2,14.7l0.2,1.1l-1.1-0.1
						C175.3,223.4,174.9,223.3,174.5,223.3z"/>
				</g>
				<path class="st4" d="M193.1,246c-0.1,0-0.1,0-0.2,0c-3.7-0.7-8.7-4.1-8.9-4.2c-0.4-0.3-0.5-0.8-0.2-1.2c0.3-0.4,0.8-0.5,1.2-0.2
					c0,0,4.9,3.3,8.2,3.9c0.5,0.1,0.7,0.5,0.7,1C193.9,245.8,193.5,246,193.1,246z"/>
			</g>
		</g>
	</g>
	<circle class="st10" cx="250" cy="250" r="250"/>
	<circle class="st11" cx="21" cy="437" r="5"/>
	<rect class="st10" width="500" height="500"/>
	<path class="st4" d="M255.5,429.6c-0.9-2.3-2.8-4-5.1-4.7c-13-4.1-58.2-14.8-104.7,15.1c-2.2,1.4-3.6,3.8-3.8,6.4
		c-0.6,7.8-1.6,26.7-1.4,53.7h137.3C269.8,465.9,259.3,438.9,255.5,429.6z"/>
</g>
</svg>
